g cube
v -100 100 -100
v 100 100 -100
v 100 -100 -100
v -100 -100 -100
v -100 -100 100
v 100 -100 100
v 100 100 100
v -100 100 100

vn -0 -0 -1
vn 0 -1 0
vn 0 0 1
vn -1 0 0
vn -0 1 -0
vn 1 0 -0

vt 0.25 0.6666
vt 0.5 0.6666
vt 0.5 0.3333
vt 0.25 0.3333
vt 0.25 0.3333
vt 0.5 0.3333
vt 0.5 0
vt 0.25 0
vt 0.75 0.6666
vt 1 0.6666
vt 1 0.3333
vt 0.75 0.3333
vt 0 0.6666
vt 0.25 0.6666
vt 0.25 0.3333
vt 0 0.3333
vt 0.25 1
vt 0.5 1
vt 0.5 0.6666
vt 0.25 0.6666
vt 0.5 0.6666
vt 0.75 0.6666
vt 0.75 0.3333
vt 0.5 0.3333

f 1/1/1 2/2/1 3/3/1
f 3/3/1 4/4/1 1/1/1
f 5/5/2 4/6/2 3/7/2
f 3/7/2 6/8/2 5/5/2
f 5/9/3 6/10/3 7/11/3
f 7/11/3 8/12/3 5/9/3
f 8/13/4 1/14/4 4/15/4
f 4/15/4 5/16/4 8/13/4
f 7/17/5 2/18/5 1/19/5
f 1/19/5 8/20/5 7/17/5
f 6/21/6 3/22/6 2/23/6
f 2/23/6 7/24/6 6/21/6